<?xml version="1.0" encoding="utf-8"?>
<!-- Generator: Adobe Illustrator 22.1.0, SVG Export Plug-In . SVG Version: 6.00 Build 0)  -->
<svg version="1.1" id="图层_1" xmlns="http://www.w3.org/2000/svg" xmlns:xlink="http://www.w3.org/1999/xlink" x="0px" y="0px"
	 viewBox="0 0 387.8 238" style="enable-background:new 0 0 387.8 238;" xml:space="preserve">
<style type="text/css">
	.st0{fill:#FFFFFF;}
</style>
<title>WalletConnect&apos;s logo</title>
<path id="WalletConnect_1_" class="st0" d="M79.5,46.5c63.2-61.9,165.7-61.9,228.9,0L316,54c3.2,3.1,3.2,8.1,0,11.2l-26,25.5
	c-1.6,1.5-4.1,1.5-5.7,0l-10.5-10.3c-44.1-43.2-115.6-43.2-159.7,0l-11.2,11c-1.6,1.5-4.1,1.5-5.7,0l-26-25.5
	c-3.2-3.1-3.2-8.1,0-11.2L79.5,46.5z M362.2,99.2l23.2,22.7c3.2,3.1,3.2,8.1,0,11.2L281,235.4c-3.2,3.1-8.3,3.1-11.4,0l0,0
	l-74.1-72.6c-0.8-0.8-2.1-0.8-2.9,0l0,0l-74.1,72.6c-3.2,3.1-8.3,3.1-11.4,0l0,0L2.5,133.1c-3.2-3.1-3.2-8.1,0-11.2l23.2-22.7
	c3.2-3.1,8.3-3.1,11.4,0l74.1,72.6c0.8,0.8,2.1,0.8,2.9,0l0,0l74.1-72.6c3.2-3.1,8.3-3.1,11.4,0l0,0l74.1,72.6
	c0.8,0.8,2.1,0.8,2.9,0l74.1-72.6C354,96.1,359.1,96.1,362.2,99.2z"/>
</svg>
