<svg width="1024" height="512" xmlns="http://www.w3.org/2000/svg" xmlns:xlink="http://www.w3.org/1999/xlink" viewBox="0 0 1610.33 727.04"><defs><radialGradient id="g" cx="86.25" cy="-115.13" r="92.98" fx="38.30178734" gradientTransform="matrix(5.69 0 0 3.39 -422 476.95)" gradientUnits="userSpaceOnUse"><stop offset=".03" stop-color="#a0d3f7"/><stop offset=".73" stop-color="#0e67a6"/><stop offset="1" stop-color="#073454"/></radialGradient><radialGradient id="a" cx="57.54" cy="-115.32" r="11.53" gradientTransform="matrix(5.69 0 0 3.39 -422 476.95)" gradientUnits="userSpaceOnUse"><stop offset=".35" stop-color="#a0d3f7"/><stop offset="1" stop-color="#0e67a6"/></radialGradient><radialGradient xlink:href="#a" id="h" cx="82.4" cy="-113.15" r="3.74"/><radialGradient xlink:href="#a" id="i" cx="105.43" cy="-115.6" r="2.51"/><radialGradient xlink:href="#a" id="j" cx="64.89" cy="-115.7" r="4.46"/><radialGradient xlink:href="#a" id="k" cx="81.5" cy="-112.46" r="7.37"/><radialGradient xlink:href="#a" id="l" cx="28.44" cy="-113.02" r="3.39"/><radialGradient xlink:href="#a" id="m" cx="40.33" cy="-115.21" r="3.71"/><radialGradient xlink:href="#a" id="n" cx="96.08" cy="-114.71" r="2.68"/><radialGradient xlink:href="#a" id="o" cx="116.97" cy="-115.1" r="3.66"/><radialGradient xlink:href="#a" id="p" cx="135.17" cy="-113.53" r="5.25"/><radialGradient xlink:href="#a" id="q" cx="148.22" cy="-113.7" r="1.68"/><radialGradient xlink:href="#a" id="r" cx="154.12" cy="-114.76" r=".61"/><radialGradient xlink:href="#a" id="s" cx="164.24" cy="-115.17" r="3.17"/><radialGradient xlink:href="#a" id="t" cx="10.89" cy="-114.3" r="4.96"/><radialGradient xlink:href="#a" id="u" cx="21.86" cy="-113.72" r=".87"/><radialGradient xlink:href="#a" id="v" cx="34.79" cy="-112.91" r="2.83"/><radialGradient xlink:href="#a" id="w" cx="47.08" cy="-114.33" r="4.43"/><radialGradient xlink:href="#a" id="x" cx="40.02" cy="-112.41" r="2.5"/><radialGradient xlink:href="#a" id="y" cx="27.22" cy="-111.17" r=".76"/><radialGradient xlink:href="#a" id="z" cx="22.59" cy="-112.42" r="1.87"/><radialGradient xlink:href="#a" id="A" cx="53.79" cy="-117.58" r="1.41"/><radialGradient xlink:href="#a" id="B" cx="53.6" cy="-114.22" r="2.69"/><radialGradient xlink:href="#a" id="C" cx="69.24" cy="-112.31" r="1.85"/><radialGradient xlink:href="#a" id="D" cx="77.08" cy="-112.65" r="9.08"/><radialGradient xlink:href="#a" id="E" cx="90.63" cy="-110.94" r="1.48"/><radialGradient xlink:href="#a" id="F" cx="99.46" cy="-114.47" r="3.93"/><radialGradient xlink:href="#a" id="G" cx="109.13" cy="-114.68" r="3.28"/><radialGradient xlink:href="#a" id="H" cx="124.59" cy="-113.66" r="3.88"/><radialGradient xlink:href="#a" id="I" cx="130.23" cy="-112.66" r="2.7"/><radialGradient xlink:href="#a" id="J" cx="143.46" cy="-111.9" r="2.27"/><radialGradient xlink:href="#a" id="K" cx="155.33" cy="-113.94" r=".57"/><radialGradient xlink:href="#a" id="L" cx="172.28" cy="-114.11" r="1.47"/><radialGradient xlink:href="#a" id="M" cx="170.78" cy="-109.75" r="11.53" gradientTransform="matrix(4.02 0 0 3.39 -241.64 476.95)"/><radialGradient xlink:href="#a" id="N" cx="195.63" cy="-107.58" r="3.74" gradientTransform="matrix(4.02 0 0 3.39 -241.64 476.95)"/><radialGradient xlink:href="#a" id="O" cx="99.63" cy="-110.56" r="2.51"/><radialGradient xlink:href="#a" id="P" cx="178.13" cy="-110.13" r="4.46" gradientTransform="matrix(4.02 0 0 3.39 -241.64 476.95)"/><radialGradient xlink:href="#a" id="Q" cx="194.74" cy="-106.89" r="7.37" gradientTransform="matrix(4.02 0 0 3.39 -241.64 476.95)"/><radialGradient xlink:href="#a" id="R" cx="141.68" cy="-107.45" r="3.39" gradientTransform="matrix(4.02 0 0 3.39 -241.64 476.95)"/><radialGradient xlink:href="#a" id="S" cx="153.57" cy="-109.64" r="3.71" gradientTransform="matrix(4.02 0 0 3.39 -241.64 476.95)"/><radialGradient xlink:href="#a" id="T" cx="209.32" cy="-109.14" r="2.68" gradientTransform="matrix(4.02 0 0 3.39 -241.64 476.95)"/><radialGradient xlink:href="#a" id="U" cx="111.17" cy="-110.06" r="3.66"/><radialGradient xlink:href="#a" id="V" cx="129.36" cy="-108.49" r="5.25"/><radialGradient xlink:href="#a" id="W" cx="142.41" cy="-108.66" r="1.68"/><radialGradient xlink:href="#a" id="X" cx="148.32" cy="-109.72" r=".62"/><radialGradient xlink:href="#a" id="Y" cx="158.44" cy="-110.13" r="3.17"/><radialGradient xlink:href="#a" id="Z" cx="124.13" cy="-108.73" r="4.96" gradientTransform="matrix(4.02 0 0 3.39 -241.64 476.95)"/><radialGradient xlink:href="#a" id="aa" cx="135.1" cy="-108.15" r=".87" gradientTransform="matrix(4.02 0 0 3.39 -241.64 476.95)"/><radialGradient xlink:href="#a" id="ab" cx="148.03" cy="-107.34" r="2.83" gradientTransform="matrix(4.02 0 0 3.39 -241.64 476.95)"/><radialGradient xlink:href="#a" id="ac" cx="160.32" cy="-108.76" r="4.43" gradientTransform="matrix(4.02 0 0 3.39 -241.64 476.95)"/><radialGradient xlink:href="#a" id="ad" cx="153.26" cy="-106.84" r="2.5" gradientTransform="matrix(4.02 0 0 3.39 -241.64 476.95)"/><radialGradient xlink:href="#a" id="ae" cx="140.46" cy="-105.6" r=".76" gradientTransform="matrix(4.02 0 0 3.39 -241.64 476.95)"/><radialGradient xlink:href="#a" id="af" cx="135.83" cy="-106.85" r="1.87" gradientTransform="matrix(4.02 0 0 3.39 -241.64 476.95)"/><radialGradient xlink:href="#a" id="ag" cx="167.03" cy="-112.01" r="1.41" gradientTransform="matrix(4.02 0 0 3.39 -241.64 476.95)"/><radialGradient xlink:href="#a" id="ah" cx="166.84" cy="-108.65" r="2.69" gradientTransform="matrix(4.02 0 0 3.39 -241.64 476.95)"/><radialGradient xlink:href="#a" id="ai" cx="182.48" cy="-106.75" r="1.85" gradientTransform="matrix(4.02 0 0 3.39 -241.64 476.95)"/><radialGradient xlink:href="#a" id="aj" cx="190.32" cy="-107.08" r="9.08" gradientTransform="matrix(4.02 0 0 3.39 -241.64 476.95)"/><radialGradient xlink:href="#a" id="ak" cx="203.86" cy="-105.37" r="1.48" gradientTransform="matrix(4.02 0 0 3.39 -241.64 476.95)"/><radialGradient xlink:href="#a" id="al" cx="93.66" cy="-109.43" r="3.93"/><radialGradient xlink:href="#a" id="am" cx="103.33" cy="-109.65" r="3.28"/><radialGradient xlink:href="#a" id="an" cx="118.78" cy="-108.62" r="3.88"/><radialGradient xlink:href="#a" id="ao" cx="124.42" cy="-107.62" r="2.7"/><radialGradient xlink:href="#a" id="ap" cx="137.66" cy="-106.86" r="2.27"/><radialGradient xlink:href="#a" id="aq" cx="149.53" cy="-108.9" r=".57"/><radialGradient xlink:href="#a" id="ar" cx="166.48" cy="-109.07" r="1.47"/><radialGradient xlink:href="#a" id="as" cx="60.94" cy="-107.04" r="11.53" gradientTransform="matrix(4.02 0 0 3.39 -241.64 476.95)"/><radialGradient xlink:href="#a" id="at" cx="85.79" cy="-104.87" r="3.74" gradientTransform="matrix(4.02 0 0 3.39 -241.64 476.95)"/><radialGradient xlink:href="#a" id="au" cx="22" cy="-107.85" r="2.51"/><radialGradient xlink:href="#a" id="av" cx="68.28" cy="-107.42" r="4.46" gradientTransform="matrix(4.02 0 0 3.39 -241.64 476.95)"/><radialGradient xlink:href="#a" id="aw" cx="84.89" cy="-104.18" r="7.37" gradientTransform="matrix(4.02 0 0 3.39 -241.64 476.95)"/><radialGradient xlink:href="#a" id="ax" cx="31.84" cy="-104.74" r="3.39" gradientTransform="matrix(4.02 0 0 3.39 -241.64 476.95)"/><radialGradient xlink:href="#a" id="ay" cx="43.73" cy="-106.93" r="3.71" gradientTransform="matrix(4.02 0 0 3.39 -241.64 476.95)"/><radialGradient xlink:href="#a" id="az" cx="99.47" cy="-106.43" r="2.68" gradientTransform="matrix(4.02 0 0 3.39 -241.64 476.95)"/><radialGradient xlink:href="#a" id="aA" cx="33.54" cy="-107.35" r="3.66"/><radialGradient xlink:href="#a" id="aB" cx="51.73" cy="-105.78" r="5.25"/><radialGradient xlink:href="#a" id="aC" cx="64.78" cy="-105.95" r="1.68"/><radialGradient xlink:href="#a" id="aD" cx="70.69" cy="-107.01" r=".61"/><radialGradient xlink:href="#a" id="aE" cx="80.81" cy="-107.42" r="3.17"/><radialGradient xlink:href="#a" id="aF" cx="14.29" cy="-106.02" r="4.96" gradientTransform="matrix(4.02 0 0 3.39 -241.64 476.95)"/><radialGradient xlink:href="#a" id="aG" cx="25.26" cy="-105.44" r=".87" gradientTransform="matrix(4.02 0 0 3.39 -241.64 476.95)"/><radialGradient xlink:href="#a" id="aH" cx="38.18" cy="-104.63" r="2.83" gradientTransform="matrix(4.02 0 0 3.39 -241.64 476.95)"/><radialGradient xlink:href="#a" id="aI" cx="50.47" cy="-106.05" r="4.43" gradientTransform="matrix(4.02 0 0 3.39 -241.64 476.95)"/><radialGradient xlink:href="#a" id="aJ" cx="43.42" cy="-104.13" r="2.5" gradientTransform="matrix(4.02 0 0 3.39 -241.64 476.95)"/><radialGradient xlink:href="#a" id="aK" cx="30.61" cy="-102.89" r=".76" gradientTransform="matrix(4.02 0 0 3.39 -241.64 476.95)"/><radialGradient xlink:href="#a" id="aL" cx="25.99" cy="-104.14" r="1.87" gradientTransform="matrix(4.02 0 0 3.39 -241.64 476.95)"/><radialGradient xlink:href="#a" id="aM" cx="57.18" cy="-109.3" r="1.41" gradientTransform="matrix(4.02 0 0 3.39 -241.64 476.95)"/><radialGradient xlink:href="#a" id="aN" cx="57" cy="-105.94" r="2.69" gradientTransform="matrix(4.02 0 0 3.39 -241.64 476.95)"/><radialGradient xlink:href="#a" id="aO" cx="72.63" cy="-104.03" r="1.85" gradientTransform="matrix(4.02 0 0 3.39 -241.64 476.95)"/><radialGradient xlink:href="#a" id="aP" cx="80.47" cy="-104.37" r="9.08" gradientTransform="matrix(4.02 0 0 3.39 -241.64 476.95)"/><radialGradient xlink:href="#a" id="aQ" cx="94.02" cy="-102.66" r="1.48" gradientTransform="matrix(4.02 0 0 3.39 -241.64 476.95)"/><radialGradient xlink:href="#a" id="aR" cx="16.03" cy="-106.72" r="3.93"/><radialGradient xlink:href="#a" id="aS" cx="25.7" cy="-106.93" r="3.28"/><radialGradient xlink:href="#a" id="aT" cx="41.16" cy="-105.91" r="3.88"/><radialGradient xlink:href="#a" id="aU" cx="46.8" cy="-104.91" r="2.7"/><radialGradient xlink:href="#a" id="aV" cx="60.03" cy="-104.15" r="2.27"/><radialGradient xlink:href="#a" id="aW" cx="71.9" cy="-106.19" r=".57"/><radialGradient xlink:href="#a" id="aX" cx="88.85" cy="-106.36" r="1.47"/><radialGradient id="b" cx="57.95" cy="-116.53" r="11.53" gradientTransform="matrix(5.69 0 0 3.39 -422 476.95)" gradientUnits="userSpaceOnUse"><stop offset=".03" stop-color="#a0d3f7"/><stop offset=".58" stop-color="#0e67a6"/><stop offset="1" stop-color="#0b5081"/></radialGradient><radialGradient xlink:href="#b" id="aY" cx="82.8" cy="-114.36" r="3.74"/><radialGradient xlink:href="#b" id="aZ" cx="105.83" cy="-116.81" r="2.51"/><radialGradient xlink:href="#b" id="ba" cx="65.29" cy="-116.91" r="4.46"/><radialGradient xlink:href="#b" id="bb" cx="81.9" cy="-113.67" r="7.37"/><radialGradient xlink:href="#b" id="bc" cx="28.85" cy="-114.23" r="3.39"/><radialGradient xlink:href="#b" id="bd" cx="40.74" cy="-116.42" r="3.71"/><radialGradient xlink:href="#b" id="be" cx="96.49" cy="-115.92" r="2.68"/><radialGradient xlink:href="#b" id="bf" cx="117.37" cy="-116.31" r="3.66"/><radialGradient xlink:href="#b" id="bg" cx="135.57" cy="-114.74" r="5.25"/><radialGradient xlink:href="#b" id="bh" cx="148.62" cy="-114.91" r="1.68"/><radialGradient xlink:href="#b" id="bi" cx="154.52" cy="-115.97" r=".62"/><radialGradient xlink:href="#b" id="bj" cx="164.64" cy="-116.38" r="3.17"/><radialGradient xlink:href="#b" id="bk" cx="11.3" cy="-115.51" r="4.96"/><radialGradient xlink:href="#b" id="bl" cx="22.27" cy="-114.93" r=".87"/><radialGradient xlink:href="#b" id="bm" cx="35.19" cy="-114.12" r="2.83"/><radialGradient xlink:href="#b" id="bn" cx="47.48" cy="-115.54" r="4.43"/><radialGradient xlink:href="#b" id="bo" cx="40.43" cy="-113.62" r="2.5"/><radialGradient xlink:href="#b" id="bp" cx="27.62" cy="-112.38" r=".76"/><radialGradient xlink:href="#b" id="bq" cx="23" cy="-113.63" r="1.87"/><radialGradient xlink:href="#b" id="br" cx="54.19" cy="-118.79" r="1.41"/><radialGradient xlink:href="#b" id="bs" cx="54.01" cy="-115.43" r="2.69"/><radialGradient xlink:href="#b" id="bt" cx="69.65" cy="-113.52" r="1.85"/><radialGradient xlink:href="#b" id="bu" cx="77.48" cy="-113.86" r="9.08"/><radialGradient xlink:href="#b" id="bv" cx="91.03" cy="-112.15" r="1.48"/><radialGradient xlink:href="#b" id="bw" cx="99.86" cy="-115.68" r="3.93"/><radialGradient xlink:href="#b" id="bx" cx="109.53" cy="-115.89" r="3.28"/><radialGradient xlink:href="#b" id="by" cx="124.99" cy="-114.87" r="3.88"/><radialGradient xlink:href="#b" id="bz" cx="130.63" cy="-113.87" r="2.7"/><radialGradient xlink:href="#b" id="bA" cx="143.87" cy="-113.11" r="2.27"/><radialGradient xlink:href="#b" id="bB" cx="155.74" cy="-115.15" r=".57"/><radialGradient xlink:href="#b" id="bC" cx="172.68" cy="-115.32" r="1.47"/><linearGradient id="d" x1="829.32" x2="829.32" y1="282.41" y2="61.88" gradientUnits="userSpaceOnUse"><stop offset=".18" stop-color="#fff"/><stop offset=".22" stop-color="#f7fdfe"/><stop offset=".29" stop-color="#e2f7fb"/><stop offset=".37" stop-color="#c0edf7"/><stop offset=".46" stop-color="#90e0f0"/><stop offset=".56" stop-color="#52cee8"/><stop offset=".67" stop-color="#08badf"/><stop offset=".68" stop-color="#02b8de"/><stop offset=".74" stop-color="#03b3da"/><stop offset=".81" stop-color="#06a3ce"/><stop offset=".9" stop-color="#0c89b9"/><stop offset=".99" stop-color="#13669e"/><stop offset="1" stop-color="#14619a"/></linearGradient><linearGradient id="e" x1="90.94" x2="90.94" y1="445.78" y2="70.95" gradientUnits="userSpaceOnUse"><stop offset=".03" stop-color="#e7f7fa"/><stop offset=".44" stop-color="#00add2"/><stop offset=".77" stop-color="#006ab5"/><stop offset=".96" stop-color="#014575"/></linearGradient><clipPath id="c" transform="translate(734.57 282.8)"><path fill="none" d="M-422-206H602v512H-422z"/></clipPath><clipPath id="f" transform="translate(734.57 282.8)"><path fill="none" d="m620.09 89.19-.28-.71c-42.2 5.29-60.38-3.74-102.16-6.45-46.55-3-94.46 6-141.41 6.53-52.55.82-104.76-4.8-157-7.17-51.42-3.13-104.32 3.81-155.52 5.77C5.57 89.38-46 79.59-103 76.09c-39.71-2.44-76.57 3.12-115 8-41.47 5.32-78.87-.17-119.88-1.35-34.67-1-83.42 1.51-113.92 10.85l-1.71.15v478.5H620v-483a.36.36 0 0 1 .09-.05Z"/></clipPath></defs><g clip-path="url(#c)" data-name="Layer 1" style="isolation:isolate"><path fill="url(#d)" d="M313.67 63.92h1031.31v570.96H313.67z"/><g fill="#d8d7d2" style="mix-blend-mode:screen"><path d="M1392.31 112.94a56 56 0 0 1-14.53-10.85c-14.07-14-21.84-25.12-58.89-37.24-40.87-12.83-112-7.31-159.25 2.86-57.87 15-56 48.24-49.53 68.08s-39.88 28.33-61 31.31-47.29 2.93-55.6 15.23c-11.84 18.39-7.34 33.73.31 43.83s7.49 15.33-18.21 13c-26.73-2.63-38.5 14.34-31.14 26.27s1.19 12.37-26.9 11.29-24 30-11.86 35.69 23.49-10.41 26.08-18.25 5.49-15.09 14.46-6.51 20.32 7.33 24.5 2.39 7.54-8.24 12.82-5.58 9.81 9.33 23.61-9.41c11.77-16 31.69 13.32 58.43 7.3s36.47-21.24 39.2-34.32 7.88-22.51 19.31-25.18 25.72 4.72 28.64 17.17 11.09 14.06 34.7 4.65 29.93-15.11 40.8-11.7 22.17 10.83 13.41 19.11-9 19.78 7.35 20.58 11.55 15.63 11.55 15.63l38.86-6.49c11.24-8.49 16.6-18.34 14.25-25.81s-.44-10.23 14.37-13.75 15.85-11.85 7.78-23.51 6.52-14.77 6.52-14.77c12.19 1.9 16.9-.47 32.49-8.07 6.63-3.23 12.63-4 17.47-3.14Z"/><path d="M657.74-166.18a54.4 54.4 0 0 1-16-11.55c-14.08-14-21.84-25.12-58.89-37.23-40.86-12.84-112-7.32-159.24 2.85-57.88 15-56.05 48.25-49.54 68.08s-39.87 28.33-61 31.32c-3.22.46-6.55.84-9.92 1.21 17.14 4.88 34.53 11.69 50.61.73 8.7-5.94 16.27-10.08 28.08-9.54 5.13.23 10.48 1.14 15.63.72 8.58-.72 10.15-8.1 10.06-13.85-.07-5.21-3.74-13.33 2.82-17 9.93-5.52 23.14-3.67 32.74 1.08 5.7 2.83 19.65 8.09 25.59 2.2 3.11-3.07 3.58-7.32 3.51-11.13-.14-9-3.09-18.29-1.38-27.26 2.73-14.38 21.16-24.35 37.89-26.59 22.19-3 45.28 2.1 66 8.35 9.7 2.92 19.21 6.24 28.54 9.84 12.67 4.89 22.43 12 32 20.19 7.1 6.14 14.24 12.9 22.54 18.27Z" style="mix-blend-mode:screen" transform="translate(734.57 282.8)"/><path d="M657.74-124.18a85.3 85.3 0 0 0-23.82-6c-12.69-1.38-26.78-1-38.36 3.94s-16.19 12-18.12 21.75c-2.22 11.26-2.92 28.78-18.06 34.28-7.24 2.63-18.51 2-24.51-2.53s-7.24-11.16-9-17.19-3.72-13.27-10.53-16.92c-11.3-6.06-27-3.05-35.53 4.82-9.77 9-18.24 25.79-36.15 25-10.84-.48-19.74-5.13-26.9-11.43-5.24-4.61-11.43-12.68-20-13.25-9.37-.63-18 6.1-23.66 11.39s-9.5 11.87-12.62 18.52c-4.9 10.46-8.91 22.49-19.19 30.53-7.73 6-18.78 11.87-30 9.44-12.47-2.7-22.6-10.6-36.29-7.17-16 4.1-16 19.32-24.24 29-5.26 6.1-14.51 11.5-24.2 11.06-7.65-.33-14.47-3.68-22.06-4-6.6-.32-13.31 1.11-17.37 5.66-1.82 2.05-3.5 4.18-5.37 6.22-4.08 4.44-12.54 7.26-19.59 6.27.93 6.37 4.38 12.25 9 14.44 12.13 5.73 23.49-10.41 26.08-18.25s5.49-15.09 14.46-6.51 20.29 7.29 24.47 2.35S243.72-1 249 1.66s9.81 9.33 23.61-9.41c11.77-16 31.69 13.32 58.43 7.3s36.47-21.24 39.2-34.32 7.88-22.51 19.31-25.18 25.72 4.72 28.64 17.17 11.09 14.06 34.7 4.65 29.93-15.11 40.8-11.7S515.86-39 507.1-30.72s-9 19.78 7.35 20.58S526 5.49 526 5.49L564.86-1c11.24-8.49 16.6-18.34 14.25-25.81s-.44-10.23 14.37-13.75 15.85-11.85 7.78-23.51 6.52-14.77 6.52-14.77c12.19 1.9 16.9-.47 32.49-8.07 6.63-3.23 12.63-4 17.47-3.14Z" style="mix-blend-mode:multiply" transform="translate(734.57 282.8)"/><path d="M1018.28 305.24s13.6-2.71 22.54.46-8.27 7.7 5.67 12.81 21.94 16.81 10.78 25.8-19.89 17.63-35.12 9.54-23.05-3.2-33.85-2.54-22.07-8-16.78-20 16.18-11.79 27.39-10.51 13.4.53 10.66-5.1 1.79-9.33 8.71-10.46Z"/><path d="M327.89 51.22a16.45 16.45 0 0 1-10 8.42c-9.25 2.73-14.46-1.44-19.86-7-2.86-3-6.53-6.5-11.7-6.31-6.17.22-9.43 4-13.44 7.19-2.72 2.19-7.37 6-11.75 4.84-8.54-2.16-14.33-13.27-11.86-19.93 0-.11.11-.2.15-.31-5.2 1.16-9.62 4.08-12.45 10.44-5.29 11.93 6 20.62 16.78 20s18.63-5.54 33.85 2.54 23.94-.56 35.12-9.54c3.97-3.28 5.48-6.85 5.16-10.34Z" style="mix-blend-mode:multiply" transform="translate(734.57 282.8)"/><path d="M1130.57 275.47s-11.54-2.53-12.81 3-9 13-.43 11.26 4.11 7.53 13.91 3.26 13.08-13.94-.67-17.52Z"/></g><g fill="#d8d7d2" style="mix-blend-mode:screen"><path d="M624.08 180.03c-4.76-10.67-26.3-4.15-34.52.52s-16.2 8.75-16.27-2.48-9.75-16.12-16.88-14.48-12.3 2.4-14.28-2.34-.11-12.23-25.59-5c-21.72 6.17-13.75-26.62-39.06-35.82s-44.86-2.56-57.35 6.07-23.94 13.21-34.81 9.35-16-16.92-8.35-28 2.64-16.52-22.95-21.51-35-3.87-40.61-12.11-8.44-19.77 4.88-21.61 22.59-10.56 10.7-19.59 3.58-18 3.58-18l-35-15.1c-9.42.43-17.55 2.4-23.38 5.46V242.7c29.52-1.53 44.92-19.22 52.74-32.76 10.72-18.59 53.08-1.14 71.64 7.49s38.63 22.2 54.77 17.07c23.71-8 32.44-22.1 34.59-33.81s6.43-15.64 24.33-.58c18.44 15.84 40.94 8.89 44.77-4.07s8.94-10.11 29.59 5.26 42.21-10.59 37.46-21.27Z"/><path d="M-362.19-89.44c-11.41.06-20.5-.67-29.13-7.19-3.77-2.84-7.15-6.3-11.45-8.64-7.15-3.88-14.21 1-18.71 5.43-4.09 4-7.72 12.17-15.66 11.58a28.85 28.85 0 0 1-23.28-15.68v62.4c31.81-.27 48.1-18.81 56.22-32.86 10.75-18.6 53.12-1.14 71.69 7.49 2.83 1.31 5.7 2.74 8.58 4.2-9.28-12.61-17.22-26.83-38.26-26.73Z" style="mix-blend-mode:screen" transform="translate(734.57 282.8)"/><path d="M-110.49-102.77c-4.76-10.67-26.3-4.15-34.52.52s-16.2 8.75-16.27-2.48-9.75-16.12-16.88-14.48-12.3 2.4-14.28-2.34-.11-12.23-25.59-5c-21.72 6.17-13.75-26.62-39.06-35.82s-44.86-2.56-57.35 6.07-23.94 13.21-34.81 9.35-16-16.92-8.35-28 2.64-16.52-22.95-21.51-35-3.87-40.61-12.11-8.44-19.77 4.88-21.61 22.59-10.56 10.7-19.59 3.58-18 3.58-18l-35-15.1c-9.42.43-17.55 2.4-23.38 5.46v116a35.31 35.31 0 0 0 8.41 0c14.64-1.85 34.48-10.36 47.59-.5 7.95 6 11.09 14.16 11.58 22.7.36 6.25-1.3 15.65 4.82 20.51 6.7 5.32 18.68 4.64 27.2 3.49 8.76-1.18 16.73-4.19 24.41-7.69 12.07-5.49 24.71-12.66 39-13.51 10.73-.64 23.85.6 30.56 8.28 7.44 8.52 8.94 19.82 22.21 24.24 15.54 5.17 27.6-6.53 41.6-9.68 8.89-2 20.28-1.34 27.38 4 5.6 4.22 8.18 10.31 13.71 14.51 4.83 3.66 11.1 6 17.84 4.63 3-.63 6-1.4 9.06-2 6.66-1.31 15.4.9 20 5.31 4.31-5.28 6.33-11.57 4.52-15.65Z" style="mix-blend-mode:multiply" transform="translate(734.57 282.8)"/><path d="M532 127.35s-12.59-5-16.93-12 12.45-1.63 5.82-12.76-3.49-24.26 12.21-25.38 29.29-3.25 34.55 10.84 15.16 14.37 23.95 19.45 10.57 17.58-3 24-21.8.71-29.37-6.09-9.86-7.35-12.23-1.6-8.78 6.25-15 3.54Z"/><path d="M-213.62-200.39a21.79 21.79 0 0 1 14.39-1.27c9.27 2.68 9.95 8.58 9.66 15.66-.16 3.75-.15 8.36 4 10.89 4.92 3 10.39 1.83 16 1.42 3.83-.27 10.39-.76 12.87 2.36 4.83 6.09.46 17.6-6.73 21.44-.12.06-.24.09-.36.15 4.91 1.8 10.62 1.85 17.84-1.57 13.55-6.42 11.79-18.93 3-24s-18.69-5.38-23.95-19.45-18.84-12-34.55-10.84c-5.65.41-9.64 2.37-12.17 5.21Z" style="mix-blend-mode:multiply" transform="translate(734.57 282.8)"/><path d="M422.16 92.15s6.85 7.9 12.18 4.36 17.22-5.31 9.27-8.43 2.83-7.91-8.08-9.7-21.08 3.91-13.37 13.77Z"/></g><path fill="url(#e)" d="M644 444.24v-358c-55.45 6.59-119-7.66-175.42-2.24-91.2 8.82-159.85 1.76-236.86-2-86.85-4.24-174.12 10.87-260 3.38-25.75-2.25-51.33-4.83-77.49-6s-51.36.31-77 2.65c-42.77 3.92-64.39 8.5-136.69 2.67-47.52-3.85-94.92 2.21-142.75 5.09v354.45Z" transform="translate(734.57 282.8)"/><path fill="#faba7c" d="M313.57 530.3S15.64 560.3.4 595.44s450.72 56.94 702.41 37.74c0 0 186.33 13.9 434.08 14.89 213.05.85 545.54-19.83 459.59-53.68-43.82-17.27-190.67-37.29-257.06-44.81 0 0 73.52.8 125.6-19s-223.55-50.22-399.87-57.47-1089.51 34.06-751.58 57.19Z"/><path fill="#faba7c" d="M861.87 311.59c-43.82-17.27-190.67-37.29-257.06-44.81 0 0 73.52.8 125.6-19 16.5-6.28.1-13.6-35.58-20.92 3.79 3 5.31 6.31 2.38 9.92-4.37 5.44-18.42 7.4-29.12 8.66-16.87 2-33.84 3.92-51 5.19-45.42 3.33-91.22 3.63-136.91 2.8 32.73 7.43 72.35 9.09 106.68 13.84 40.44 5.61 80.64 11.56 121.31 16.8 21.86 2.82 44.44 5.94 64.27 11.18 11.51 3.05 31.23 9 25.88 16.76-7.91 11.51-44.78 17.2-66.17 20.61-37.57 6-76.84 9-115.81 11.85-45.57 3.35-91.42 6.08-137.44 7.2-46.49 1.12-93.09.54-139.57.15-46.66-.39-93.35-1-139.9-2.48-43.8-1.37-88.52-2.46-131.61-6.42-13.49-1.25-102.25-10.06-93-22.18-25.6 7.52-75.24 12.23-114.3 14.39-175.7 9.7-307.51 4.6-398.86.59-48.25-2.12-101.16-4-144.11-15.44-13.93-3.73-29.78-9.26-31.6-17.48a8.39 8.39 0 0 1 .15-4.11c-11 4.51-18.22 9.16-20.28 13.92-15.23 35.16 450.72 56.94 702.41 37.74 0 0 186.33 13.9 434.08 14.89 213.02.88 545.51-19.8 459.56-53.65Z" style="mix-blend-mode:multiply" transform="translate(734.57 282.8)"/><path fill="#c5783a" d="M897.67 550.8c-10.59-4.9-19.55 8.19-12.14 8.33 3.24-.85 7.14.46 10.45.24a4.46 4.46 0 0 0 1.69-8.57Zm18.9 8.53c-2.24-3.5-10.69-1.47-7.65 2.85 1.26 4.72 10.62 1.76 7.65-2.85-.6-.96.57.87 0 0Zm-22.62 7.61c-1.66-.42-5.16-1.51-6.25-.33-7.11 7.73 16.59 2.89 6.25.33-.61-.14 1.07.26 0 0Zm-40.38-7.73c-2.17-.33-16.66.33-8.53 4.44 7.88 4 14.53-3.52 8.53-4.44Zm103.84 5.81c-3.68-4.63-20-2.31-17.14 4.22 2.66 6 22.36 2.35 17.14-4.22Zm153.92-57.96c-3.34-1.88-23.94-3.74-20.29 3.41 4.82 9.49 28.24 1.11 20.29-3.41-5.01-2.83 2.38 1.36 0 0Zm-27.07 10.59c-4.68-.69-15.09 5.28-7.39 6.3 2.81.38 6.8 1.69 9.33-.28 2.35-1.84 1.19-5.57-1.94-6-2.34-.37 2.09.28 0-.02Zm-31.06 20.57Zm.02-5.49c-3.15-1.51-10.2-.43-5.6 3.58 4.92 4.28 10.82-1.12 5.6-3.58-.3-.15 1.55.72 0 0Zm-.02 5.49Zm54.46-19.34c-1.66.31-4.24-1.47-6 .43-2.67 2.9 2.15 5.78 5 5.38 4.19-.57 6.17-6.95 1-5.81.37-.08 2.28-.5 0 0Zm24.06 17.47c-2.8-1.14-2.76.12-4.35-.32-3.38-1.2-4.89 2.16-3.77 4.48 3 6.23 14.22-1.66 8.12-4.16Z"/><path fill="#9b7950" d="M394.51 551.8c-2.73-1.56-19.63-3.09-16.64 2.79 3.95 7.77 23.17.91 16.64-2.79-4.1-2.39 1.96 1.06 0 0Zm-22.2 8.62c-3.85-.56-12.38 4.34-6.06 5.18 2.3.3 5.58 1.38 7.65-.23a2.81 2.81 0 0 0-1.59-4.95c-1.91-.27 1.72.26 0 0Zm-25.48 16.88Zm.02-4.5c-2.59-1.22-8.37-.34-4.59 2.94 4 3.51 8.87-.92 4.59-2.94Zm-.02 4.5Zm44.67-15.86c-1.35.26-3.47-1.2-4.9.34-2.19 2.39 1.77 4.75 4.12 4.42 3.42-.47 5.05-5.7.78-4.76Zm19.74 14.36c-2.28-.94-2.26.1-3.56-.27-2.78-1-4 1.78-3.09 3.68 2.47 5.11 11.66-1.35 6.65-3.41Zm135.72-80.72c-2.06-1.17-14.74-2.32-12.5 2.1 3 5.83 17.4.67 12.5-2.1-3.08-1.76 1.47.83 0 0Zm-16.67 6.51c-2.89-.42-9.3 3.26-4.55 3.89 1.73.22 4.19 1 5.74-.17a2.11 2.11 0 0 0-1.19-3.72Zm-19.14 12.67Zm.02-3.38c-1.95-.92-6.28-.26-3.44 2.21 3 2.63 6.65-.7 3.44-2.21-.19-.08.95.45 0 0Zm-.02 3.38Zm33.55-11.9c-1 .19-2.61-.91-3.68.25-1.65 1.79 1.33 3.56 3.09 3.32 2.57-.35 3.79-4.28.59-3.57Zm14.87 10.75c-1.72-.7-1.7.08-2.68-.2-2.08-.74-3 1.33-2.31 2.77 1.85 3.83 8.75-1 5-2.57Zm24.53 55.06c1.86 2.45 16.94 10 16.79 3.43-.21-8.68-21.22-9.26-16.79-3.43Zm24.61-.03c3.34 1.92 13.5.44 8-2.63-2-1.12-4.59-3.32-7.24-2.57a2.83 2.83 0 0 0-.74 5.2Zm31.35-6.5Zm-2.04 4.16c1.87 2.09 7.66 3.36 5.6-1.08-2.19-4.74-8.69-2.36-5.6 1.08.18.25-.92-1 0 0Zm2.04-4.16Zm-48.8-1.43c1.38.26 2.7 2.39 4.72 1.47 3.12-1.44.48-5.07-1.85-5.62-3.41-.81-7.28 3.48-2.87 4.15Zm-12-20.54c1.72 1.71 2.15.73 3.21 1.55 2.15 1.92 4.54-.2 4.53-2.31 0-5.67-11.49-3-7.74.76Z" opacity=".3" style="mix-blend-mode:multiply"/><path fill="#c5783a" d="M1076.84 567.47c-10.58-4.9-19.54 8.19-12.14 8.33 3.24-.85 7.14.46 10.46.25a4.46 4.46 0 0 0 1.68-8.58Zm18.92 8.49c-2.25-3.5-10.69-1.47-7.65 2.85 1.26 4.73 10.61 1.77 7.65-2.85-.61-.96.56.84 0 0Zm-22.63 7.61c-1.66-.42-5.17-1.51-6.26-.33-7.1 7.73 16.59 2.9 6.26.33Zm-40.35-7.72c-2.18-.34-16.68.32-8.54 4.43 7.87 4 14.53-3.52 8.54-4.43-1.95-.3 1.79.25 0 0Zm103.79 5.8c-3.68-4.63-20-2.31-17.13 4.23 2.66 6 22.35 2.34 17.13-4.23-3.78-4.77 1.11 1.37 0 0Z"/><g clip-path="url(#f)"><path fill="#4ad4f8" d="M233.3 394.38s125.56 81.16 353.92 25.42c272.73-66.55 284.1 78.21 490.57-4s180.91 92.91 355.61 32.16v-75s-101.13-58.16-293.27-9.42c-77 13-255.17-62.07-418-37s-210.19 42.88-309.45 0-200.23-14.35-179.38 67.84Z"/><path fill="url(#g)" d="M644.18 89.19c-44.28 8.37-91.14-.88-136-2.11-44-1.09-87.47 7.82-132 7.61-57.2 0-112.93-9.9-169.91-11.4-56.55-.91-111.81 7.94-168 9.87-49.64 1.75-95.53-7.65-144.43-9.9-28.87-2.26-59.31 1.57-87.29 5.25-45.61 6-83.92 4.84-129.43.88-46.59-4.86-92.85 2.09-139.15 4.75 30.05-9.76 88.85-12.38 124.14-11.35 41 1.18 78.41 6.67 119.88 1.35 38.46-4.93 75.32-10.49 115-8C-46 79.59 5.57 89.38 63.74 87.16c51.2-2 104.1-8.9 155.52-5.77 52.22 2.37 104.43 8 157 7.17C423.19 88.05 471.1 79 517.65 82c41.78 2.71 84 11.74 126.24 6.45Z" transform="translate(734.57 282.8)"/><g opacity=".8" style="mix-blend-mode:screen"><path fill="url(#a)" d="M-3.68 88.39c-15.78-.43-31.53.54-47.3.23-17.02-.36-32.29-3.25-48.41-6.22-13.66-2.52-26.68-3.62-40.86-2.14-15.71 1.63-30.32 6.07-46 7.91-.92.11-.7 1 .22 1 14.26-.36 27.36-3.77 41.29-5.31 17-1.86 32.66 1 48.63 4.06 29.67 5.62 61.93 3.09 92.44 2 1.67-.04 1.67-1.49-.01-1.53Z" transform="translate(734.57 282.8)"/><path fill="url(#h)" d="M76.23 92A212.32 212.32 0 0 1 48 93.26c-5.66-.09-11.47-1-17.06-1.46-4.81-.43-9 .1-13.93-.66-.18 0-.24.12-.08.16a66.78 66.78 0 0 0 11.14 1.35c5.85.29 11.47 1.45 17.29 1.74a133.65 133.65 0 0 0 31.05-2c.42-.03.24-.39-.18-.39Z" transform="translate(734.57 282.8)"/><path fill="url(#i)" d="M197.6 83.79c-13.22-.05-26.36.81-39.57 1-.57 0-.57.54 0 .54 13.22.05 26.36-.87 39.57-1.07.5-.02.5-.46 0-.47Z" opacity=".5" transform="translate(734.57 282.8)"/><path fill="url(#j)" d="M-18.06 86.58c-23.27-2.22-47.32-1-69.84-5.8-.3-.06-.51.23-.22.31 22.17 5.86 46.2 5 69.82 6.56 1.01.06 1.24-.97.24-1.07Z" transform="translate(734.57 282.8)"/><path fill="url(#k)" d="M99.54 92.07c-20.1 1.52-38 5.78-58.57 4.19-10.71-.81-20.32-2.94-30.79-4.21-8.69-1-18 0-26.76.23-1 0-1 .93 0 .94 10.72.06 21.38-.69 31.69 1.52A198.49 198.49 0 0 0 41 98.35c20.24 1.65 39.44-1.54 58.84-4.95 1.16-.2 1-1.4-.3-1.33Z" transform="translate(734.57 282.8)"/><path fill="url(#l)" d="M-233.42 91.56a149.26 149.26 0 0 1-26.59 2c-4.67 0-9.35-.37-14-.74-3.89-.31-8.92.25-12.36-1-.79-.28-1.38.39-.7.7 2.61 1.19 4.81 1.37 8.08 1.37 5.32 0 10.69.8 16 1a105.4 105.4 0 0 0 29.75-3.09c.33 0 .12-.29-.18-.24Z" transform="translate(734.57 282.8)"/><path fill="url(#m)" d="M-164.53 81.42c-19.27.66-37.4 5.38-56.19 7.65-1.34.16-.77 1.35.55 1.21 18.85-2.11 36.91-6 55.88-7.77 1.04-.1.79-1.12-.24-1.09Z" transform="translate(734.57 282.8)"/><path fill="url(#n)" d="M145.13 85.14c-6.84.54-13.7 1-20.49 1.76s-13.74 2.61-20.8 2.51c-.58 0-.56.49 0 .53 5.66.35 10.8-.84 16.15-1.78 8.16-1.44 17.06-.89 25.33-2.19.74-.12.61-.89-.19-.83Z" opacity=".5" transform="translate(734.57 282.8)"/><path fill="url(#o)" d="M271.81 88.14c-9.08-1.15-18.18-2.24-27.28-3.36-9.81-1.19-19.81-.52-29.62-1.49-.5-.06-.73.37-.21.45 9.57 1.5 19.28 1.83 29 2.79 9.27.91 18.5 2 27.85 2.65 1.02.06 1.23-.93.26-1.04Z" opacity=".5" transform="translate(734.57 282.8)"/><path fill="url(#p)" d="M388.56 92.44c-14.49-.28-29 .39-43.48.29-13.53-.1-26.28-3.27-40-2.73-.4 0-.42.38 0 .37 13.55-.11 26.34 2.81 40 2.69 14.5-.11 29 .33 43.48 0 .67-.01.68-.61 0-.62Z" opacity=".5" transform="translate(734.57 282.8)"/><path fill="url(#q)" d="M434.08 89.5c-8.61.83-17.28 1.54-25.85 2.49-.53.07-.31.55.22.5 8.56-1 17.27-1.51 25.77-2.66.37-.05.21-.36-.14-.33Z" opacity=".5" transform="translate(734.57 282.8)"/><path fill="url(#r)" d="M459 86.4c-2.86.52-5.76.95-8.61 1.5-.5.1-.28.56.21.47 2.84-.57 5.75-1 8.58-1.58.42-.09.25-.47-.18-.39Z" opacity=".5" transform="translate(734.57 282.8)"/><path fill="url(#s)" d="M536.83 86.42C521 83.28 503.75 84 487.48 85.28c-.6 0-.63.6 0 .57a312.62 312.62 0 0 1 48.72 1.94c1.5.21 2.09-1.08.63-1.37Z" opacity=".5" transform="translate(734.57 282.8)"/><path fill="url(#t)" d="M-320.87 88.7c-12.26-2.53-25-1.73-37.64-1-13.66.74-27.49 1.18-41 2.8-.45.06-.35.5.11.48 12.69-.57 25.32-1.36 38-1.69 13.58-.34 26.53-1.33 40 .37 1.12.09 1.51-.76.53-.96Z" transform="translate(734.57 282.8)"/><path fill="url(#u)" d="M-291.56 90.59c-4.07-.77-8.77-1-12.62.31-.57.2-.18.78.45.65 3.75-.77 7.83-.1 11.6.28 1.35.17 1.9-.98.57-1.24Z" transform="translate(734.57 282.8)"/><path fill="url(#v)" d="M-202.44 90.06c-14.78 1.84-27.54 6-42.95 6.41-.84 0-.83.74 0 .77 14.92.65 28.81-5 43.07-6.93.32-.03.16-.31-.12-.25Z" transform="translate(734.57 282.8)"/><path fill="url(#w)" d="M-119.55 86.56a192.48 192.48 0 0 0-33.78.17c-5.56.51-11.06 1.16-16.46 2.1-6.7 1.16-12.51 3-19.69 2.88 9.86.37 18.53-1.57 28-2.89 13.68-1.91 27.76-1.72 41.66-1.18 1.07.07 1.33-.99.27-1.08Z" transform="translate(734.57 282.8)"/><path fill="url(#x)" d="M-174.86 93.51c-7.4.59-14.68.13-22.1.33-6.18.18-10.83 2-16.77 2.64-.74.08-.55.77.16.76 5.72 0 10.9-1.51 16.61-1.75 7.45-.32 14.88-.54 22.22-1.46.49-.03.38-.55-.12-.52Z" transform="translate(734.57 282.8)"/><path fill="url(#y)" d="M-261.46 99.66c-3.6-1.29-7.56-.67-11.46-.38-.31 0-.31.27 0 .29 3.69.22 7.46 0 11 .68.64.12.98-.41.46-.59Z" transform="translate(734.57 282.8)"/><path fill="url(#z)" d="M-278.94 95.56c-5.92-.21-11.84-.21-17.75-.58-4.44-.28-7.6-1.17-11.62.21-.23.08-.07.32.19.27 4.24-.86 9.15.39 13.53.61 5.18.27 10.47.21 15.65 0 .57.01.57-.49 0-.51Z" transform="translate(734.57 282.8)"/><path fill="url(#A)" d="M-105.73 77.7c-7-1.2-13.77-1.12-21-1.13-.51 0-.63.46-.12.54 6.78.92 13.62 1.23 20.46 2 1.52.11 2.16-1.11.66-1.41Z" transform="translate(734.57 282.8)"/><path fill="url(#B)" d="M-96.29 89.05c-6.29-.64-12.54-1-18.92-1.18-8.21-.26-14.67 1.23-22.66 1.87-.92.07-1 .9 0 .89 6.6-.06 12.88-1.19 19.53-1.1 7.27.09 14.49.65 21.76.78 1.19.02 1.48-1.13.29-1.26Z" transform="translate(734.57 282.8)"/><path fill="url(#C)" d="M-14 94.89c-9.38-.21-19 1.56-28.25.14-.64-.1-.89.46-.27.58 9.12 1.72 19.18.53 28.52.14.92-.04.94-.84 0-.86Z" transform="translate(734.57 282.8)"/><path fill="url(#D)" d="M88.19 94.35c-12.13 1.12-24 2.41-36.34 2.2-12.74-.21-24.08-3.75-36.42-5.1-24.28-2.69-47 4.84-71.16 4.31-.69 0-.74.56-.08.62C-32 98.51-8.88 92.82 15 95.15c12.36 1.21 24.08 2.85 36.66 3.08a211.75 211.75 0 0 0 36.89-2.82c1.12-.19.8-1.17-.36-1.06Z" transform="translate(734.57 282.8)"/><path fill="url(#E)" d="M103.38 97.94c-5.79 1.93-13.13 4.19-20 3.59-1-.08-1.41.73-.42.92 7.25 1.35 15.59-1.06 21.31-3.58.95-.41.16-1.29-.89-.93Z" transform="translate(734.57 282.8)"/><path fill="url(#F)" d="M174.38 85.67c-10.74-.45-21.21.42-31.85 1.06-10 .61-19.11 3.36-29.23 3.53-1 0-.94.83 0 .88 9.42.5 17.89-1.62 26.87-3 11.23-1.7 22.83-1.14 34.21-1.65.88-.05.88-.78 0-.82Z" opacity=".5" transform="translate(734.57 282.8)"/><path fill="url(#G)" d="M224.67 88.24c-15.77-4.14-34.74-1.3-51.16-.18-1.23.08-1.29 1.19 0 1.18 17.48-.21 33.1-2.44 50.55-.14.83.11 1.45-.63.61-.86Z" opacity=".5" transform="translate(734.57 282.8)"/><path fill="url(#H)" d="M317.17 91.8c-20.39-.59-40.8-.09-60.95-2.39-.59-.07-.84.45-.25.53a408.74 408.74 0 0 0 61.2 2.73c.94-.02.94-.84 0-.87Z" opacity=".5" transform="translate(734.57 282.8)"/><path fill="url(#I)" d="M339.77 94.8a147.84 147.84 0 0 0-19.59-1.26c-7.1-.07-14.75.75-21.67-.34-1.26-.2-1.77.93-.53 1.16 5.18 1 10.36.74 15.75.69 8.64-.1 17.22.22 25.8.81 1.03.07 1.22-.92.24-1.06Z" opacity=".5" transform="translate(734.57 282.8)"/><path fill="url(#J)" d="M411.63 96c-11.18 1.16-23.81 1.45-35 0-.71-.09-1 .53-.3.65 11.36 1.89 24.27 2.19 35.57 0 .74-.11.44-.65-.27-.65Z" opacity=".5" transform="translate(734.57 282.8)"/><path fill="url(#K)" d="M464.9 89.21c-2.19.52-4.65.54-6.88 1-1 .21-.6 1.13.44 1 2.35-.39 4.86-.42 7.06-1.09.81-.28.24-1.12-.62-.91Z" opacity=".5" transform="translate(734.57 282.8)"/><path fill="url(#L)" d="M568.71 89.38a78.76 78.76 0 0 0-21-.95c-1.59.1-1.59 1.35 0 1.46 6.86.48 13.78.59 20.64 1.13 1.65.12 1.76-1.36.36-1.64Z" opacity=".5" transform="translate(734.57 282.8)"/></g><g opacity=".8" style="mix-blend-mode:screen"><path fill="url(#M)" d="M509.24 107.3c-11.15-.44-22.28.54-33.42.22-12.06-.35-22.82-3.24-34.22-6.21-9.64-2.53-18.84-3.63-28.86-2.15-11.11 1.63-21.43 6.07-32.52 7.92a.49.49 0 1 0 .15 1c10.08-.36 19.34-3.77 29.18-5.3 12-1.87 23.08 1 34.37 4.05 21 5.63 43.76 3.09 65.32 2 1.17-.05 1.18-1.49 0-1.53Z" transform="translate(734.57 282.8)"/><path fill="url(#N)" d="M565.71 111a107.24 107.24 0 0 1-20 1.21c-4-.08-8.11-1-12.06-1.46-3.4-.42-6.35.1-9.84-.66a.09.09 0 1 0-.06.16 34.22 34.22 0 0 0 7.87 1.35c4.13.3 8.11 1.45 12.22 1.74a67.42 67.42 0 0 0 22-2c.3-.07.16-.45-.13-.34Z" transform="translate(734.57 282.8)"/><path fill="url(#O)" d="M164.6 100.89c-13.23 0-26.36.81-39.58 1-.57 0-.57.54 0 .54 13.23 0 26.37-.87 39.58-1.07.49-.01.49-.45 0-.47Z" opacity=".5" transform="translate(734.57 282.8)"/><path fill="url(#P)" d="M499.08 105.49c-16.44-2.23-33.44-1-49.35-5.81-.22-.06-.37.23-.16.32 15.67 5.85 32.65 4.94 49.34 6.55a.54.54 0 0 0 .17-1.06Z" transform="translate(734.57 282.8)"/><path fill="url(#Q)" d="M582.19 111c-14.21 1.51-26.84 5.77-41.4 4.19-7.56-.82-14.35-3-21.75-4.22-6.14-1-12.73 0-18.91.23a.48.48 0 1 0 0 .95c7.57.05 15.11-.69 22.39 1.51a102.23 102.23 0 0 0 18.27 3.62c14.33 1.62 27.9-1.54 41.61-5a.67.67 0 0 0-.21-1.28Z" transform="translate(734.57 282.8)"/><path fill="url(#R)" d="M346.89 110.46a74.37 74.37 0 0 1-18.79 2 89.9 89.9 0 0 1-9.86-.73c-2.75-.32-6.31.25-8.74-1-.55-.28-1 .39-.49.7a9.38 9.38 0 0 0 5.71 1.38c3.75 0 7.55.79 11.3 1a53.74 53.74 0 0 0 21-3.09c.23-.02.08-.3-.13-.26Z" transform="translate(734.57 282.8)"/><path fill="url(#S)" d="M395.57 100.32c-13.61.67-26.42 5.39-39.71 7.66-.94.15-.53 1.35.4 1.2 13.32-2.1 26.08-6 39.48-7.77.74-.1.56-1.12-.17-1.09Z" transform="translate(734.57 282.8)"/><path fill="url(#T)" d="M614.4 104.05c-4.83.54-9.68 1-14.48 1.76s-9.7 2.61-14.69 2.5c-.42 0-.4.49 0 .53 4 .35 7.62-.83 11.41-1.77 5.76-1.44 12.05-.89 17.89-2.2a.42.42 0 1 0-.13-.82Z" opacity=".5" transform="translate(734.57 282.8)"/><path fill="url(#U)" d="M238.81 105.24c-9.08-1.15-18.19-2.24-27.29-3.36-9.8-1.19-19.81-.52-29.61-1.49-.5-.06-.73.38-.22.45 9.57 1.5 19.28 1.83 29 2.79 9.27.91 18.5 2 27.85 2.65 1.03.06 1.24-.93.27-1.04Z" opacity=".5" transform="translate(734.57 282.8)"/><path fill="url(#V)" d="M355.55 109.54c-14.49-.27-29 .39-43.47.29-13.54-.09-26.29-3.26-40-2.73-.41 0-.42.38 0 .37 13.55-.11 26.34 2.81 40 2.7 14.5-.12 29 .33 43.47 0 .68-.02.68-.62 0-.63Z" opacity=".5" transform="translate(734.57 282.8)"/><path fill="url(#W)" d="M401.07 106.61c-8.61.82-17.27 1.53-25.84 2.48-.53.07-.31.55.22.5 8.56-1 17.26-1.51 25.77-2.65.36-.05.21-.37-.15-.33Z" opacity=".5" transform="translate(734.57 282.8)"/><path fill="url(#X)" d="M426 103.5c-2.86.52-5.77 1-8.61 1.5-.5.1-.28.56.21.47 2.83-.56 5.75-1 8.58-1.58.41-.09.24-.47-.18-.39Z" opacity=".5" transform="translate(734.57 282.8)"/><path fill="url(#Y)" d="M503.82 103.52c-15.82-3.14-33.08-2.45-49.35-1.14-.59.05-.63.6 0 .58a312.57 312.57 0 0 1 48.72 1.93c1.5.17 2.1-1.07.63-1.37Z" opacity=".5" transform="translate(734.57 282.8)"/><path fill="url(#Z)" d="M285.09 107.6c-8.66-2.53-17.64-1.73-26.59-1-9.66.75-19.43 1.19-28.95 2.81a.24.24 0 1 0 .07.47c9-.56 17.9-1.36 26.89-1.69 9.6-.34 18.74-1.33 28.28.37.72.09 1-.75.3-.96Z" transform="translate(734.57 282.8)"/><path fill="url(#aa)" d="M305.81 109.5a13.37 13.37 0 0 0-8.92.31c-.41.19-.13.77.32.64 2.65-.77 5.53-.09 8.2.28.94.14 1.34-.98.4-1.23Z" transform="translate(734.57 282.8)"/><path fill="url(#ab)" d="M368.78 109c-10.44 1.84-19.46 6-30.35 6.4-.59 0-.58.74 0 .77 10.55.66 20.37-5 30.44-6.92.19-.07.13-.32-.09-.25Z" transform="translate(734.57 282.8)"/><path fill="url(#ac)" d="M427.36 105.46a96.78 96.78 0 0 0-23.87.17 104.82 104.82 0 0 0-11.63 2.1c-4.74 1.16-8.84 3-13.92 2.89 7 .37 13.09-1.57 19.79-2.88 9.67-1.91 19.62-1.73 29.45-1.18.74.06.93-1.01.18-1.1Z" transform="translate(734.57 282.8)"/><path fill="url(#ad)" d="M388.28 112.42c-5.24.58-10.38.12-15.63.33-4.36.18-7.64 2-11.85 2.64-.52.08-.38.76.12.75 4 0 7.7-1.5 11.73-1.75a139.59 139.59 0 0 0 15.71-1.45.26.26 0 0 0-.08-.52Z" transform="translate(734.57 282.8)"/><path fill="url(#ae)" d="M327.08 118.56c-2.55-1.29-5.34-.67-8.1-.38-.22 0-.22.27 0 .3 2.6.21 5.27 0 7.8.67.42.12.67-.4.3-.59Z" transform="translate(734.57 282.8)"/><path fill="url(#af)" d="M314.72 114.47c-4.18-.22-8.36-.22-12.54-.59-3.13-.27-5.37-1.16-8.21.22-.17.08-.05.31.13.26 3-.85 6.47.39 9.56.61a88.73 88.73 0 0 0 11.06 0c.41.03.41-.48 0-.5Z" transform="translate(734.57 282.8)"/><path fill="url(#ag)" d="M437.13 96.6c-4.93-1.2-9.74-1.11-14.81-1.13-.37 0-.45.47-.09.54 4.79.92 9.63 1.24 14.46 2 1.04.11 1.5-1.16.44-1.41Z" transform="translate(734.57 282.8)"/><path fill="url(#ah)" d="M443.8 108a129.91 129.91 0 0 0-13.37-1.19c-5.8-.25-10.37 1.24-16 1.88-.65.06-.69.9 0 .88 4.67-.06 9.11-1.19 13.8-1.1 5.14.09 10.25.65 15.38.78.82-.01 1.03-1.17.19-1.25Z" transform="translate(734.57 282.8)"/><path fill="url(#ai)" d="M502 113.79c-6.63-.21-13.42 1.56-20 .14-.45-.09-.62.46-.19.59 6.45 1.71 13.56.52 20.16.13.63-.04.64-.84.03-.86Z" transform="translate(734.57 282.8)"/><path fill="url(#aj)" d="M574.16 113.25c-8.57 1.13-16.95 2.41-25.67 2.21-9-.22-17-3.75-25.74-5.11-17.16-2.68-33.2 4.84-50.29 4.31-.48 0-.52.57 0 .62 16.82 2.13 33.16-3.56 50-1.22 8.73 1.2 17 2.85 25.9 3.07a106.42 106.42 0 0 0 26.07-2.82c.78-.18.57-1.17-.27-1.06Z" transform="translate(734.57 282.8)"/><path fill="url(#ak)" d="M584.9 116.84c-4.09 1.94-9.28 4.2-14.11 3.6-.7-.08-1 .72-.3.91 5.12 1.36 11-1.06 15.06-3.58.65-.41.09-1.28-.65-.93Z" transform="translate(734.57 282.8)"/><path fill="url(#al)" d="M141.37 102.77c-10.73-.45-21.21.43-31.84 1.06-10 .61-19.12 3.36-29.23 3.53-1 0-1 .83 0 .88 9.42.5 17.88-1.62 26.86-3 11.23-1.71 22.79-1.16 34.21-1.66.88-.04.89-.77 0-.81Z" opacity=".5" transform="translate(734.57 282.8)"/><path fill="url(#am)" d="M191.66 105.34c-15.77-4.13-34.74-1.29-51.15-.18-1.23.08-1.3 1.19 0 1.18 17.48-.21 33.09-2.44 50.54-.14.83.12 1.46-.63.61-.86Z" opacity=".5" transform="translate(734.57 282.8)"/><path fill="url(#an)" d="M284.16 108.9c-20.39-.58-40.79-.09-61-2.39-.58-.07-.83.45-.24.53a408.55 408.55 0 0 0 61.19 2.74c.99-.03.99-.85.05-.88Z" opacity=".5" transform="translate(734.57 282.8)"/><path fill="url(#ao)" d="M306.77 111.9a149.82 149.82 0 0 0-19.6-1.26c-7.09-.07-14.74.76-21.66-.34-1.27-.19-1.78.93-.54 1.16 5.19 1 10.37.75 15.75.69 8.65-.1 17.22.22 25.81.81 1.02.04 1.21-.96.24-1.06Z" opacity=".5" transform="translate(734.57 282.8)"/><path fill="url(#ap)" d="M378.63 113.12a156.08 156.08 0 0 1-35 0c-.7-.09-1 .53-.3.65 11.36 1.89 24.27 2.19 35.57 0 .73-.13.44-.72-.27-.65Z" opacity=".5" transform="translate(734.57 282.8)"/><path fill="url(#aq)" d="M431.89 106.32c-2.19.5-4.64.53-6.88 1-1 .2-.6 1.12.44 1 2.35-.39 4.87-.42 7.07-1.09.8-.29.23-1.12-.63-.91Z" opacity=".5" transform="translate(734.57 282.8)"/><path fill="url(#ar)" d="M535.7 106.48a78.76 78.76 0 0 0-21-1c-1.58.1-1.58 1.36 0 1.46 6.87.48 13.78.59 20.64 1.13 1.66.17 1.77-1.31.36-1.59Z" opacity=".5" transform="translate(734.57 282.8)"/></g><g opacity=".8" style="mix-blend-mode:screen"><path fill="url(#as)" d="M67.62 116.51c-11.15-.44-22.28.53-33.43.22-12.06-.36-22.81-3.25-34.21-6.21-9.64-2.53-18.85-3.63-28.87-2.15-11.11 1.63-21.42 6.07-32.51 7.91a.49.49 0 0 0 .15 1c10.08-.36 19.34-3.77 29.18-5.3 12-1.87 23.08 1 34.37 4 21 5.63 43.76 3.09 65.32 2 1.17.02 1.18-1.43 0-1.47Z" transform="translate(734.57 282.8)"/><path fill="url(#at)" d="M124.09 120.16a107.24 107.24 0 0 1-20 1.21c-4-.08-8.11-1-12.06-1.46-3.4-.42-6.35.1-9.84-.66a.09.09 0 1 0-.06.16 34.13 34.13 0 0 0 7.87 1.35c4.13.3 8.11 1.45 12.22 1.74a67.33 67.33 0 0 0 21.94-2c.36-.02.23-.4-.07-.34Z" transform="translate(734.57 282.8)"/><path fill="url(#au)" d="M-277 110.1c-13.23 0-26.37.81-39.58 1-.57 0-.57.54 0 .54 13.23.05 26.37-.87 39.58-1.07.47-.02.47-.46 0-.47Z" opacity=".5" transform="translate(734.57 282.8)"/><path fill="url(#av)" d="M57.46 114.7c-16.45-2.23-33.44-1-49.35-5.81-.22-.06-.37.23-.16.31 15.67 5.86 32.65 5 49.34 6.56a.54.54 0 0 0 .17-1.06Z" transform="translate(734.57 282.8)"/><path fill="url(#aw)" d="M140.57 120.18c-14.21 1.52-26.84 5.78-41.4 4.2-7.57-.82-14.36-2.95-21.75-4.22-6.15-1-12.73 0-18.91.23a.48.48 0 1 0 0 .94c7.57.06 15.11-.69 22.39 1.52a103.12 103.12 0 0 0 18.27 3.62c14.33 1.61 27.9-1.55 41.61-5a.67.67 0 0 0-.21-1.29Z" transform="translate(734.57 282.8)"/><path fill="url(#ax)" d="M-94.73 119.67a74.42 74.42 0 0 1-18.79 2 87.51 87.51 0 0 1-9.86-.74c-2.75-.31-6.31.25-8.74-1-.56-.28-1 .39-.49.7a9.36 9.36 0 0 0 5.71 1.38c3.75 0 7.55.79 11.29 1a53.57 53.57 0 0 0 21-3.09c.24-.01.09-.29-.12-.25Z" transform="translate(734.57 282.8)"/><path fill="url(#ay)" d="M-46 109.53c-13.61.67-26.43 5.38-39.71 7.65-.94.16-.54 1.36.39 1.21 13.32-2.11 26.09-6 39.49-7.77.69-.1.51-1.12-.17-1.09Z" transform="translate(734.57 282.8)"/><path fill="url(#az)" d="M172.78 113.25c-4.84.55-9.68 1-14.48 1.76s-9.7 2.61-14.69 2.51c-.42 0-.4.49 0 .53 4 .35 7.62-.83 11.41-1.78 5.76-1.43 12-.89 17.89-2.19a.42.42 0 0 0-.13-.83Z" opacity=".5" transform="translate(734.57 282.8)"/><path fill="url(#aA)" d="M-202.82 114.45c-9.07-1.16-18.18-2.24-27.28-3.36-9.8-1.19-19.81-.52-29.61-1.49-.5-.06-.73.37-.22.45 9.57 1.5 19.28 1.83 29 2.79 9.27.91 18.5 2 27.85 2.65 1.02.06 1.23-.93.26-1.04Z" opacity=".5" transform="translate(734.57 282.8)"/><path fill="url(#aB)" d="M-86.07 118.75c-14.49-.28-29 .39-43.48.29-13.53-.1-26.28-3.27-39.95-2.73-.41 0-.43.38 0 .37 13.54-.11 26.34 2.81 39.95 2.69 14.51-.11 29 .33 43.48 0 .68-.01.68-.61 0-.62Z" opacity=".5" transform="translate(734.57 282.8)"/><path fill="url(#aC)" d="M-40.55 115.81c-8.61.83-17.27 1.54-25.84 2.49-.53.07-.31.55.22.49 8.56-1 17.26-1.5 25.77-2.65.4-.05.2-.36-.15-.33Z" opacity=".5" transform="translate(734.57 282.8)"/><path fill="url(#aD)" d="M-15.62 112.71c-2.86.52-5.77 1-8.62 1.5-.49.1-.28.56.22.47 2.83-.57 5.75-1 8.58-1.58.44-.1.24-.48-.18-.39Z" opacity=".5" transform="translate(734.57 282.8)"/><path fill="url(#aE)" d="M62.2 112.73c-15.82-3.14-33.08-2.45-49.35-1.15-.59 0-.63.61 0 .58a312.62 312.62 0 0 1 48.72 1.94c1.5.17 2.1-1.1.63-1.37Z" opacity=".5" transform="translate(734.57 282.8)"/><path fill="url(#aF)" d="M-156.53 116.81c-8.66-2.53-17.64-1.73-26.6-1-9.65.74-19.43 1.18-28.94 2.8a.24.24 0 0 0 .07.48c9-.56 17.9-1.36 26.89-1.69 9.6-.34 18.74-1.33 28.28.37.72.09.99-.77.3-.96Z" transform="translate(734.57 282.8)"/><path fill="url(#aG)" d="M-135.81 118.7a13.43 13.43 0 0 0-8.92.32c-.41.19-.13.77.31.64 2.66-.77 5.54-.1 8.21.28.94.13 1.34-.94.4-1.24Z" transform="translate(734.57 282.8)"/><path fill="url(#aH)" d="M-72.84 118.17c-10.44 1.85-19.46 6-30.35 6.41-.59 0-.58.74 0 .77 10.55.65 20.36-5 30.43-6.93.2-.03.12-.29-.08-.25Z" transform="translate(734.57 282.8)"/><path fill="url(#aI)" d="M-14.26 114.67a96.3 96.3 0 0 0-23.87.17 105.42 105.42 0 0 0-11.64 2.1c-4.73 1.16-8.83 3-13.91 2.89 7 .37 13.09-1.57 19.79-2.88 9.67-1.92 19.62-1.74 29.45-1.18.74.06.92-1.01.18-1.1Z" transform="translate(734.57 282.8)"/><path fill="url(#aJ)" d="M-53.34 121.63c-5.24.58-10.38.12-15.63.33-4.36.18-7.64 2-11.85 2.63-.52.08-.38.77.12.76 4 0 7.7-1.5 11.73-1.75a137.31 137.31 0 0 0 15.71-1.46.26.26 0 0 0-.08-.51Z" transform="translate(734.57 282.8)"/><path fill="url(#aK)" d="M-114.54 127.77c-2.55-1.29-5.34-.67-8.1-.38-.22 0-.22.27 0 .3 2.6.21 5.27 0 7.8.67.42.12.66-.36.3-.59Z" transform="translate(734.57 282.8)"/><path fill="url(#aL)" d="M-126.9 123.67c-4.18-.21-8.37-.21-12.54-.58-3.13-.27-5.37-1.17-8.21.21-.17.09 0 .32.13.27 3-.85 6.47.39 9.56.61a88.73 88.73 0 0 0 11.06 0c.41.01.41-.49 0-.51Z" transform="translate(734.57 282.8)"/><path fill="url(#aM)" d="M-4.5 105.81c-4.92-1.2-9.73-1.11-14.8-1.13-.37 0-.45.46-.09.54 4.79.92 9.62 1.24 14.46 2 1.04.11 1.5-1.16.43-1.41Z" transform="translate(734.57 282.8)"/><path fill="url(#aN)" d="M2.18 117.17A129.91 129.91 0 0 0-11.19 116c-5.8-.26-10.37 1.24-16 1.87-.65.07-.69.9 0 .89 4.67-.06 9.1-1.19 13.8-1.1 5.14.09 10.25.64 15.38.78.82.01 1.01-1.15.19-1.27Z" transform="translate(734.57 282.8)"/><path fill="url(#aO)" d="M60.33 123c-6.63-.21-13.42 1.56-20 .14-.45-.09-.62.46-.19.58 6.45 1.72 13.56.53 20.16.14.7-.04.7-.86.03-.86Z" transform="translate(734.57 282.8)"/><path fill="url(#aP)" d="M132.54 122.46c-8.57 1.12-16.95 2.41-25.67 2.2-9-.21-17-3.74-25.74-5.1-17.16-2.68-33.2 4.84-50.29 4.31-.48 0-.52.56-.05.62 16.82 2.13 33.16-3.56 50-1.23 8.74 1.21 17 2.86 25.91 3.08a106.42 106.42 0 0 0 26.07-2.82c.82-.18.6-1.17-.23-1.06Z" transform="translate(734.57 282.8)"/><path fill="url(#aQ)" d="M143.28 126.05c-4.09 1.94-9.28 4.2-14.11 3.6-.7-.09-1 .72-.3.91 5.12 1.36 11-1.06 15.06-3.58.65-.41.07-1.28-.65-.93Z" transform="translate(734.57 282.8)"/><path fill="url(#aR)" d="M-300.25 112c-10.74-.45-21.21.42-31.85 1.06-10 .61-19.11 3.36-29.22 3.53-1 0-.95.83 0 .88 9.42.5 17.88-1.62 26.86-3 11.23-1.71 22.79-1.17 34.21-1.66.88-.06.88-.81 0-.81Z" opacity=".5" transform="translate(734.57 282.8)"/><path fill="url(#aS)" d="M-250 114.55c-15.77-4.14-34.74-1.3-51.15-.18-1.23.08-1.3 1.19 0 1.18 17.48-.21 33.09-2.44 50.54-.14.87.11 1.5-.64.61-.86Z" opacity=".5" transform="translate(734.57 282.8)"/><path fill="url(#aT)" d="M-157.46 118.11c-20.39-.59-40.79-.09-60.95-2.39-.58-.07-.83.45-.24.53a408.55 408.55 0 0 0 61.19 2.75c.94 0 .94-.86 0-.89Z" opacity=".5" transform="translate(734.57 282.8)"/><path fill="url(#aU)" d="M-134.85 121.11a148.1 148.1 0 0 0-19.6-1.26c-7.09-.07-14.74.75-21.66-.34-1.27-.2-1.78.93-.54 1.16 5.18 1 10.36.74 15.75.69 8.65-.1 17.22.22 25.81.81 1.02.07 1.21-.92.24-1.06Z" opacity=".5" transform="translate(734.57 282.8)"/><path fill="url(#aV)" d="M-63 122.33c-11.18 1.16-23.82 1.45-35 0-.71-.09-1 .53-.3.65 11.36 1.89 24.27 2.19 35.57 0 .73-.13.45-.72-.27-.65Z" opacity=".5" transform="translate(734.57 282.8)"/><path fill="url(#aW)" d="M-9.73 115.52c-2.19.51-4.64.54-6.88 1-1 .21-.6 1.13.44 1 2.35-.39 4.87-.42 7.07-1.09.8-.28.23-1.11-.63-.91Z" opacity=".5" transform="translate(734.57 282.8)"/><path fill="url(#aX)" d="M94.08 115.69a78.76 78.76 0 0 0-21-1c-1.59.1-1.58 1.35 0 1.46 6.87.48 13.78.59 20.64 1.13 1.62.17 1.77-1.28.36-1.59Z" opacity=".5" transform="translate(734.57 282.8)"/></g><g opacity=".8" style="mix-blend-mode:screen"><path fill="url(#b)" d="M-1.39 84.28c-15.78-.43-31.52.55-47.3.22-17.06-.34-32.31-3.23-48.41-6.21-13.66-2.52-26.67-3.61-40.85-2.14-15.72 1.63-30.32 6.07-46 7.91-.93.11-.71 1 .21 1 14.26-.37 27.36-3.78 41.28-5.31 17-1.87 32.67 1 48.64 4 29.67 5.63 61.94 3.09 92.44 2 1.65.01 1.66-1.42-.01-1.47Z" transform="translate(734.57 282.8)"/><path fill="url(#aY)" d="M78.52 87.94a213.87 213.87 0 0 1-28.23 1.21c-5.66-.08-11.47-1-17.07-1.46-4.81-.43-9 .11-13.92-.66-.19 0-.25.12-.08.16a66.79 66.79 0 0 0 11.13 1.35c5.85.3 11.47 1.45 17.29 1.74a133.77 133.77 0 0 0 31.06-2c.43-.03.24-.39-.18-.34Z" transform="translate(734.57 282.8)"/><path fill="url(#aZ)" d="M199.9 79.69c-13.23-.06-26.37.8-39.57 1-.57 0-.57.53 0 .53 13.22 0 26.35-.87 39.57-1.06.49-.02.49-.47 0-.47Z" transform="translate(734.57 282.8)"/><path fill="url(#ba)" d="M-15.77 82.48c-23.27-2.23-47.32-1-69.84-5.81-.3 0-.51.24-.22.31 22.17 5.86 46.21 5 69.82 6.56 1.01.07 1.25-.97.24-1.06Z" transform="translate(734.57 282.8)"/><path fill="url(#bb)" d="M101.84 88c-20.11 1.51-38 5.77-58.58 4.19-10.71-.82-20.32-3-30.79-4.22-8.69-1-18 0-26.76.23-1 0-1 .93 0 .94 10.72.06 21.38-.68 31.7 1.52a195 195 0 0 0 25.85 3.61c20.28 1.62 39.48-1.53 58.87-4.95 1.18-.23 1.01-1.44-.29-1.32Z" transform="translate(734.57 282.8)"/><path fill="url(#bc)" d="M-231.13 87.46a151.07 151.07 0 0 1-26.59 2c-4.67 0-9.35-.37-14-.74-3.89-.32-8.91.25-12.36-1-.78-.28-1.37.39-.69.7 2.6 1.19 4.8 1.37 8.08 1.38 5.31 0 10.68.79 16 1a105 105 0 0 0 29.75-3.1c.32-.01.11-.3-.19-.24Z" transform="translate(734.57 282.8)"/><path fill="url(#bd)" d="M-162.24 77.31c-19.27.67-37.4 5.39-56.19 7.65-1.33.16-.76 1.36.56 1.21C-199 84.06-181 80.2-162 78.4c1-.1.79-1.12-.24-1.09Z" transform="translate(734.57 282.8)"/><path fill="url(#be)" d="M147.42 81c-6.84.54-13.69 1-20.49 1.76s-13.74 2.6-20.79 2.5c-.59 0-.56.5 0 .53 5.64.36 10.79-.83 16.15-1.78 8.16-1.43 17-.88 25.32-2.18.75-.08.62-.83-.19-.83Z" transform="translate(734.57 282.8)"/><path fill="url(#bf)" d="M274.11 84c-9.09-1.15-18.19-2.24-27.28-3.35-9.81-1.2-19.82-.53-29.62-1.5-.51-.06-.73.38-.22.46 9.58 1.5 19.29 1.82 29 2.78 9.27.92 18.5 2 27.85 2.65 1.03.1 1.24-.89.27-1.04Z" transform="translate(734.57 282.8)"/><path fill="url(#bg)" d="M390.86 88.34c-14.5-.28-29 .38-43.48.28-13.54-.09-26.29-3.26-40-2.73-.41 0-.42.38 0 .38 13.54-.12 26.34 2.8 40 2.69 14.5-.12 29 .33 43.48 0 .67-.02.67-.62 0-.62Z" transform="translate(734.57 282.8)"/><path fill="url(#bh)" d="M436.37 85.4c-8.61.83-17.28 1.53-25.84 2.49-.54.06-.31.55.22.48 8.55-1 17.27-1.5 25.77-2.64.36-.05.2-.36-.15-.33Z" transform="translate(734.57 282.8)"/><path fill="url(#bi)" d="M461.3 82.29c-2.86.52-5.77.95-8.62 1.5-.49.1-.28.57.22.47 2.83-.57 5.75-1 8.58-1.58.41-.08.24-.46-.18-.39Z" transform="translate(734.57 282.8)"/><path fill="url(#bj)" d="M539.12 82.31c-15.82-3.14-33.07-2.44-49.35-1.14-.6 0-.63.61 0 .58a313.81 313.81 0 0 1 48.72 1.93c1.51.17 2.1-1.07.63-1.37Z" transform="translate(734.57 282.8)"/><path fill="url(#bk)" d="M-318.58 84.59c-12.25-2.53-25-1.73-37.64-1-13.66.75-27.49 1.19-41 2.81-.44 0-.34.49.11.48 12.69-.57 25.32-1.37 38.05-1.7 13.57-.33 26.52-1.33 40 .37 1.06.09 1.46-.76.48-.96Z" transform="translate(734.57 282.8)"/><path fill="url(#bl)" d="M-289.26 86.49c-4.08-.78-8.78-.95-12.63.31-.57.19-.18.78.45.64 3.75-.76 7.83-.1 11.61.28 1.34.13 1.9-.97.57-1.23Z" transform="translate(734.57 282.8)"/><path fill="url(#bm)" d="M-200.14 86c-14.79 1.85-27.55 6-43 6.42-.84 0-.82.73 0 .77 14.92.65 28.82-5 43.07-6.93.32-.09.2-.35-.07-.26Z" transform="translate(734.57 282.8)"/><path fill="url(#bn)" d="M-117.26 82.45a193.45 193.45 0 0 0-33.78.17c-5.56.51-11.05 1.17-16.46 2.1-6.7 1.16-12.51 3-19.69 2.89 9.86.37 18.53-1.56 28-2.89 13.68-1.9 27.76-1.72 41.67-1.17 1.07.05 1.32-1 .26-1.1Z" transform="translate(734.57 282.8)"/><path fill="url(#bo)" d="M-172.56 89.41c-7.41.59-14.69.12-22.11.33-6.18.17-10.82 2.05-16.77 2.64-.74.07-.55.76.17.76 5.71 0 10.89-1.51 16.6-1.75 7.45-.32 14.88-.55 22.22-1.47.45-.06.38-.55-.11-.51Z" transform="translate(734.57 282.8)"/><path fill="url(#bp)" d="M-259.17 95.55c-3.6-1.29-7.55-.67-11.45-.38-.31 0-.32.28 0 .29 3.68.22 7.46 0 11 .68.62.12.98-.41.45-.59Z" transform="translate(734.57 282.8)"/><path fill="url(#bq)" d="M-276.64 91.46c-5.92-.22-11.85-.22-17.75-.59-4.44-.28-7.6-1.17-11.62.22-.24.08-.08.31.18.26 4.24-.85 9.15.39 13.53.61 5.18.27 10.47.21 15.66 0 .57.04.57-.48 0-.5Z" transform="translate(734.57 282.8)"/><path fill="url(#br)" d="M-103.43 73.59c-7-1.2-13.78-1.11-21-1.13-.51 0-.63.47-.12.54 6.78.93 13.62 1.23 20.46 2 1.51.12 2.15-1.15.66-1.41Z" transform="translate(734.57 282.8)"/><path fill="url(#bs)" d="M-94 85c-6.29-.65-12.54-1-18.91-1.19-8.21-.25-14.68 1.24-22.67 1.88-.92.07-1 .9 0 .89 6.6-.07 12.89-1.19 19.54-1.11 7.27.09 14.49.66 21.76.78 1.18-.02 1.48-1.18.28-1.25Z" transform="translate(734.57 282.8)"/><path fill="url(#bt)" d="M-11.71 90.78c-9.38-.21-19 1.57-28.25.14-.64-.1-.89.47-.27.58 9.12 1.72 19.19.54 28.52.14.93-.03.94-.84 0-.86Z" transform="translate(734.57 282.8)"/><path fill="url(#bu)" d="M90.48 90.24c-12.13 1.12-24 2.41-36.33 2.2-12.75-.21-24.09-3.74-36.42-5.1-24.29-2.69-47 4.84-71.17 4.31-.68 0-.73.56-.08.62C-29.71 94.41-6.58 88.71 17.3 91c12.36 1.26 24.07 2.9 36.7 3.12a210.78 210.78 0 0 0 36.89-2.81c1.11-.19.75-1.17-.41-1.07Z" transform="translate(734.57 282.8)"/><path fill="url(#bv)" d="M105.68 93.83c-5.79 1.94-13.14 4.19-20 3.6-1-.08-1.41.72-.42.9 7.25 1.37 15.58-1 21.31-3.57.95-.41.15-1.28-.89-.93Z" transform="translate(734.57 282.8)"/><path fill="url(#bw)" d="M176.67 81.56c-10.73-.45-21.21.42-31.85 1.07-10 .6-19.11 3.35-29.22 3.52-1 0-.95.84 0 .89 9.42.49 17.89-1.62 26.86-3 11.23-1.71 22.79-1.17 34.21-1.67.88-.03.88-.77 0-.81Z" transform="translate(734.57 282.8)"/><path fill="url(#bx)" d="M227 84.13c-15.81-4.13-34.77-1.29-51.19-.13-1.23.08-1.3 1.19 0 1.18 17.47-.21 33.09-2.44 50.54-.14.83.06 1.46-.68.65-.91Z" transform="translate(734.57 282.8)"/><path fill="url(#by)" d="M319.46 87.7c-20.39-.59-40.79-.1-60.95-2.4-.59-.07-.84.46-.24.53a407.23 407.23 0 0 0 61.19 2.73c.94-.02.94-.83 0-.86Z" transform="translate(734.57 282.8)"/><path fill="url(#bz)" d="M342.06 90.69a151.27 151.27 0 0 0-19.58-1.25c-7.1-.08-14.75.75-21.68-.34-1.26-.21-1.77.92-.53 1.15 5.19 1 10.37.75 15.75.69 8.65-.09 17.22.22 25.8.82 1.03.06 1.23-.93.24-1.07Z" transform="translate(734.57 282.8)"/><path fill="url(#bA)" d="M413.93 91.91a156.08 156.08 0 0 1-35 0c-.71-.09-1 .53-.3.66 11.36 1.88 24.27 2.18 35.57 0 .73-.14.44-.73-.27-.66Z" transform="translate(734.57 282.8)"/><path fill="url(#bB)" d="M467.2 85.1c-2.2.53-4.65.55-6.89 1-1 .2-.6 1.12.44.95 2.35-.39 4.86-.42 7.07-1.09.8-.22.23-1.06-.62-.86Z" transform="translate(734.57 282.8)"/><path fill="url(#bC)" d="M571 85.28a78.74 78.74 0 0 0-21-1c-1.58.11-1.58 1.36 0 1.47 6.87.48 13.78.58 20.64 1.12 1.62.13 1.77-1.31.36-1.59Z" transform="translate(734.57 282.8)"/></g></g><path fill="#fff" d="m465.3 435.98 1.48.3 4.38.51 7.13.23c2.81 0 6-.23 9.64-.35s7.58-.67 11.91-1l6.74-.69c2.33-.26 4.72-.72 7.2-1.08l15.76-2.49 17.3-3.48c12.12-2.18 24.9-5.7 38.58-8.9s28.08-6.83 43.07-10.26c15.24-2.73 30.84-6.24 47.13-7.88l12.19-1.55c4.1-.39 8.25-.51 12.39-.78l12.45-.7 3.11-.17 3.13.08 6.25.13 12.51.34 3.12.08 3.1.33 6.19.66 12.33 1.33a53.84 53.84 0 0 1 6.09.9l6 1.1c8 1.47 16 2.79 23.62 4.87s15.38 3.65 22.69 5.81c29.52 8.19 56.3 17.53 80.19 23a255.28 255.28 0 0 0 33 5.55 168.84 168.84 0 0 0 26 .4 161.3 161.3 0 0 0 16.61-2l5.83-1-5.79 1.16a145.6 145.6 0 0 1-16.58 2.42 169.78 169.78 0 0 1-26.2.19 233.88 233.88 0 0 1-33.49-5c-24.16-5.26-51.25-14-80.69-22.08-7.35-2.14-14.92-3.76-22.56-5.66s-15.48-3.3-23.41-4.71l-6-1.06a51.77 51.77 0 0 0-6-.87l-12.16-1.25-5.97-.61-3-.31-3.08-.06-12.32-.28-6.16-.17-3.08-.08-3.07.15-12.29.63c-4.09.25-8.19.35-12.24.71l-12.08 1.49c-16.14 1.55-31.62 5-46.74 7.59l-43.18 9.81c-13.78 3-26.66 6.37-38.88 8.4l-17.43 3.23-15.91 2.14c-2.5.31-4.9.71-7.25.92l-6.8.54c-4.37.28-8.34.84-12 .78s-6.87.15-9.69.1l-7.15-.44-4.37-.64Zm567.79-8.65s1.23-.27 3.51-.8 5.57-1.54 9.79-2.64c2.09-.6 4.45-1.15 6.94-2l8.05-2.66 9.16-3 4.95-1.64 5.08-2 22.36-8.61 12.29-4.69c4.33-1.4 8.76-2.9 13.37-4 4.56-1.28 9.33-2.09 14.13-3 4.85-.66 9.74-1.49 14.75-1.78a158.06 158.06 0 0 1 30.36.28 148.71 148.71 0 0 1 29.6 6.12 140.55 140.55 0 0 1 26.62 11.23 122.22 122.22 0 0 1 11.66 7c3.68 2.41 7.16 4.89 10.61 7.24 6.82 4.81 13.5 9 19.59 13 6.26 3.76 11.94 7.29 17.2 10.09 2.57 1.5 5.11 2.66 7.43 3.81s4.51 2.08 6.5 2.91c4 1.68 7.23 2.75 9.44 3.47l3.41 1.09-3.47-.9c-1.15-.28-2.53-.69-4.15-1.18s-3.5-1-5.53-1.84-4.32-1.57-6.69-2.67-5-2.13-7.67-3.53c-5.45-2.6-11.33-5.92-17.72-9.58-6.24-3.85-13.13-7.92-20.07-12.54-3.52-2.26-7.08-4.66-10.81-7s-7.4-4.73-11.5-6.75a136.88 136.88 0 0 0-26-10.73 145.66 145.66 0 0 0-28.86-5.74 153.24 153.24 0 0 0-29.58-.5c-4.89.24-9.68 1-14.43 1.61-4.7.91-9.37 1.65-13.84 2.87-4.56 1-8.81 2.47-13.08 3.68l-12.34 4.37-22.72 8.09c-6.95 2.7-13.72 4.24-19.53 6l-8.2 2.35c-2.53.71-4.94 1.17-7.06 1.68-4.28 1-7.63 1.78-9.94 2.17Z"/><ellipse cx="831.68" cy="549.18" fill="#faba7c" rx="139.08" ry="16.22" style="mix-blend-mode:multiply"/><ellipse cx="349.55" cy="622.08" fill="#faba7c" rx="167.82" ry="28.16" style="mix-blend-mode:multiply"/><ellipse cx="978.17" cy="512" fill="#faba7c" rx="85.33" ry="10.24" style="mix-blend-mode:multiply"/><ellipse cx="619.77" cy="522.24" fill="#faba7c" rx="85.33" ry="10.24" style="mix-blend-mode:multiply"/><ellipse cx="1291.06" cy="547.84" fill="#faba7c" rx="85.33" ry="10.24" style="mix-blend-mode:multiply"/><ellipse cx="1074.88" cy="504.32" fill="#faba7c" rx="56.89" ry="7.68" style="mix-blend-mode:multiply"/></g></svg>